<?xml version="1.0" encoding="utf-8"?>
<!-- Generator: Adobe Illustrator 22.1.0, SVG Export Plug-In . SVG Version: 6.00 Build 0)  -->
<svg version="1.1" id="Ebene_1" xmlns="http://www.w3.org/2000/svg" xmlns:xlink="http://www.w3.org/1999/xlink" x="0px" y="0px"
	 viewBox="0 0 36 13.5" style="enable-background:new 0 0 36 13.5;" xml:space="preserve">
<g transform="translate(-96.904 -136.79)">
	<g transform="matrix(.26458 0 0 .26458 94.655 134.54)">
		<path d="M44.3,27.9c-0.6,0-1.2-0.5-1.2-1.2c0-0.7,0.5-1.2,1.2-1.2c0.7,0,1.2,0.5,1.2,1.2C45.6,27.3,45,27.9,44.3,27.9z M45.3,40.6
			h-1.8v-11h1.8V40.6z"/>
		<path d="M48.8,29.7h1.8V31c0.6-0.9,1.8-1.6,3.2-1.6c2.5,0,3.8,1.6,3.8,4v7.2h-1.9v-6.9c0-1.5-0.8-2.6-2.4-2.6
			c-1.3,0-2.4,0.9-2.8,2v7.4h-1.8L48.8,29.7L48.8,29.7z"/>
		<path d="M61.6,31.2h-1.8v-1.6h1.8v-3h1.8v3h2.6v1.6h-2.6v6.4c0,1.1,0.5,1.5,1.5,1.5c0.5,0,1.1-0.2,1.4-0.4v1.7
			c-0.4,0.2-1.1,0.4-1.7,0.4c-1.8,0-3-1-3-3L61.6,31.2z"/>
		<path d="M77.7,37.3c-0.4,2.1-1.9,3.5-4.4,3.5c-3,0-5-2.3-5-5.7c0-3.3,2-5.7,5-5.7c3,0,4.6,2.2,4.6,5.4v0.7h-7.8
			c0,2.3,1.3,3.8,3.2,3.8c1.4,0,2.4-0.7,2.7-1.9L77.7,37.3z M70.2,34.1H76c0-1.6-0.9-3.1-2.7-3.1C71.6,31,70.4,32.1,70.2,34.1z"/>
		<path d="M86.2,31.5c-0.3-0.2-0.8-0.3-1.2-0.3c-1.2,0-2.2,0.8-2.5,2v7.4h-1.8v-11h1.8v1.4c0.5-0.9,1.5-1.6,2.7-1.6
			c0.5,0,0.9,0.1,1.1,0.2L86.2,31.5L86.2,31.5z"/>
		<path d="M94.6,40.6v-0.8c-0.4,0.4-1.6,1-2.9,1c-2.2,0-4.1-1.3-4.1-3.5c0-2,1.8-3.4,4.2-3.4c1.1,0,2.3,0.5,2.8,0.9v-1.4
			c0-1.4-0.8-2.3-2.4-2.3c-1.2,0-1.9,0.5-2.3,1.5h-1.8c0.4-1.8,2-3.1,4.1-3.1c2.6,0,4.2,1.5,4.2,3.9v7.3L94.6,40.6L94.6,40.6z
			 M94.6,36.8c-0.3-0.8-1.4-1.4-2.6-1.4c-1.3,0-2.6,0.6-2.6,1.9c0,1.3,1.3,2,2.6,2c1.1,0,2.3-0.5,2.6-1.4V36.8z"/>
		<path d="M103.9,29.4c2.5,0,4,1.4,4.4,3.5h-1.9c-0.3-1.2-1.2-1.9-2.5-1.9c-1.9,0-3.1,1.7-3.1,4.1s1.2,4.1,3.1,4.1
			c1.3,0,2.3-0.7,2.5-1.9h1.9c-0.4,2.1-1.9,3.5-4.4,3.5c-2.9,0-5-2.3-5-5.7S101,29.4,103.9,29.4z"/>
		<path d="M111.6,31.2h-1.8v-1.6h1.8v-3h1.8v3h2.6v1.6h-2.6v6.4c0,1.1,0.5,1.5,1.5,1.5c0.5,0,1.1-0.2,1.4-0.4v1.7
			c-0.4,0.2-1.1,0.4-1.7,0.4c-1.8,0-3-1-3-3L111.6,31.2z"/>
		<path d="M120,27.9c-0.6,0-1.2-0.5-1.2-1.2c0-0.7,0.5-1.2,1.2-1.2c0.7,0,1.2,0.5,1.2,1.2C121.2,27.3,120.7,27.9,120,27.9z
			 M121,40.6h-1.8v-11h1.8V40.6z"/>
		<path d="M127.5,40.6l-4.3-11h2l3.2,8.6l3.2-8.6h1.9l-4.3,11H127.5z"/>
		<path d="M144.4,37.3c-0.4,2.1-1.9,3.5-4.4,3.5c-3,0-5-2.3-5-5.7c0-3.3,2-5.7,5-5.7c3,0,4.6,2.2,4.6,5.4v0.7h-7.8
			c0,2.3,1.3,3.8,3.2,3.8c1.4,0,2.4-0.7,2.7-1.9L144.4,37.3z M136.9,34.1h5.8c0-1.6-0.9-3.1-2.7-3.1C138.3,31,137.1,32.1,136.9,34.1
			z"/>
		<path d="M44.5,53c0.3,1.1,1.3,1.7,2.6,1.7c1.3,0,2.3-0.5,2.3-1.6c0-0.8-0.5-1.2-1.6-1.5l-2.2-0.6c-1.6-0.4-2.6-1.2-2.6-2.9
			c0-2,1.7-3.2,3.9-3.2c2.4,0,3.8,1.2,4.3,3.1h-1.8c-0.3-1-1.1-1.6-2.4-1.6c-1.1,0-2.1,0.5-2.1,1.6c0,0.7,0.5,1.1,1.5,1.4l2.1,0.5
			c1.9,0.5,2.8,1.5,2.8,3.1c0,2.1-1.7,3.3-4.1,3.3c-2.4,0-4.2-1.2-4.5-3.2L44.5,53z"/>
		<path d="M58.1,44.8c2.5,0,4,1.4,4.4,3.5h-1.9c-0.3-1.2-1.2-1.9-2.5-1.9c-1.9,0-3.1,1.7-3.1,4.1s1.2,4.1,3.1,4.1
			c1.3,0,2.3-0.7,2.5-1.9h1.9c-0.4,2.1-1.9,3.5-4.4,3.5c-2.9,0-5-2.3-5-5.7S55.1,44.8,58.1,44.8z"/>
		<path d="M71.3,56v-0.8c-0.4,0.4-1.6,1-2.9,1c-2.2,0-4.1-1.3-4.1-3.5c0-2,1.8-3.4,4.2-3.4c1.1,0,2.3,0.5,2.8,0.9v-1.4
			c0-1.4-0.8-2.3-2.4-2.3c-1.2,0-1.9,0.5-2.3,1.5h-1.8c0.4-1.8,2-3.1,4.1-3.1c2.6,0,4.2,1.5,4.2,3.9V56L71.3,56L71.3,56z M71.3,52.1
			c-0.3-0.8-1.4-1.4-2.6-1.4c-1.3,0-2.6,0.6-2.6,1.9c0,1.3,1.3,2,2.6,2c1.1,0,2.3-0.5,2.6-1.4V52.1z"/>
		<path d="M77.7,59.5h-1.8V45h1.8v1.3c0.6-0.8,1.7-1.5,3.1-1.5c3.2,0,4.9,2.7,4.9,5.7c0,3-1.7,5.7-4.9,5.7c-1.4,0-2.5-0.7-3.1-1.5
			V59.5z M77.7,52.7c0.6,1.1,1.7,1.8,2.8,1.8c2.1,0,3.3-1.7,3.3-4s-1.2-4-3.3-4c-1.2,0-2.3,0.7-2.8,1.8V52.7z"/>
		<path d="M97.2,52.7c-0.4,2.1-1.9,3.5-4.4,3.5c-3,0-5-2.3-5-5.7c0-3.3,2-5.7,5-5.7c3,0,4.6,2.2,4.6,5.4v0.7h-7.8
			c0,2.3,1.3,3.8,3.2,3.8c1.4,0,2.4-0.7,2.7-1.9L97.2,52.7z M89.6,49.4h5.8c0-1.6-0.9-3.1-2.7-3.1C91.1,46.4,89.9,47.5,89.6,49.4z"
			/>
		<path d="M27.7,17.7c1.3,1.3,2.1,3,2.1,5c0,3.9-3.2,7.1-7.1,7.1s-7.1-3.2-7.1-7.1s3.2-7.1,7.1-7.1V8.5c-7.8,0-14.2,6.4-14.2,14.2
			s6.4,14.2,14.2,14.2c7.8,0,14.2-6.3,14.2-14.2c0-3.9-1.6-7.5-4.2-10L27.7,17.7z"/>
	</g>
</g>
</svg>
